<svg width="1792" height="280" viewBox="0 0 1792 280" fill="none" xmlns="http://www.w3.org/2000/svg">
<path d="M1442.08 155.13C1450.45 146.755 1450.45 133.13 1442.08 124.755C1433.7 116.38 1420.08 116.38 1411.7 124.755C1403.33 133.13 1403.33 146.755 1411.7 155.13C1420.08 163.505 1433.7 163.505 1442.08 155.13Z" fill="black"/>
<mask id="mask0_1_70" style="mask-type:luminance" maskUnits="userSpaceOnUse" x="1286" y="0" width="281" height="280">
<path d="M1286.91 0H1566.91V279.979H1286.91V0Z" fill="white"/>
</mask>
<g mask="url(#mask0_1_70)">
<path d="M1426.89 -0.00518799C1349.97 -0.00518799 1287.12 62.6979 1286.94 139.62C1286.91 152.693 1288.67 165.349 1292 177.354C1298.92 202.359 1330.16 210.693 1348.51 192.349C1345.83 192.474 1343.17 193.036 1340.67 194.01C1339.85 194.328 1338.94 194.375 1338.12 194.031C1336.87 193.5 1336.12 192.286 1336.15 190.984C1336.38 180.969 1340.41 171.552 1347.49 164.469C1354.73 157.24 1364.34 153.208 1374.57 153.109C1376.19 153.099 1377.79 153.193 1379.38 153.375C1381.46 148.406 1383.72 143.536 1386.13 138.849C1379.58 138.203 1372.92 138.953 1366.69 141.047C1365.64 141.401 1364.49 141.396 1363.5 140.922C1361.81 140.115 1360.94 138.266 1361.27 136.5C1363.22 126.255 1368.15 116.932 1375.56 109.531C1381.46 103.63 1388.45 99.3542 1396.34 96.8177C1403.45 94.5365 1411.09 93.8125 1418.52 94.7084C1455.51 59.349 1505.13 49.1927 1514.76 47.5104C1516.06 47.2813 1517.39 47.7031 1518.32 48.6302C1519.25 49.5625 1519.67 50.8906 1519.45 52.1927C1517.76 61.8125 1507.63 111.323 1472.37 148.313C1473.23 155.708 1472.48 163.307 1470.2 170.37C1467.65 178.214 1463.39 185.172 1457.52 191.042C1450.16 198.396 1440.9 203.323 1430.73 205.292C1429.38 205.552 1427.5 204.964 1426.63 203.891C1425.75 202.813 1425.5 201.391 1425.95 200.063C1428.06 193.88 1428.83 187.271 1428.23 180.755C1423.47 183.208 1418.52 185.51 1413.47 187.625C1413.64 189.151 1413.73 190.698 1413.71 192.26C1413.62 202.484 1409.58 212.099 1402.35 219.328C1395.29 226.396 1385.9 230.422 1375.91 230.672C1375.04 230.698 1374.19 230.401 1373.56 229.802C1372.58 228.87 1372.29 227.479 1372.77 226.271C1373.77 223.729 1374.35 221.036 1374.48 218.318L1374.47 218.323C1356.12 236.667 1364.46 267.896 1389.46 274.828C1401.47 278.156 1414.13 279.917 1427.2 279.891C1504.13 279.724 1566.84 216.865 1566.84 139.943C1566.84 62.6511 1504.18 -0.00518799 1426.89 -0.00518799Z" fill="black"/>
</g>
<path d="M45.5625 270.746H0V216.746H45.9583C56.9271 216.746 65.7344 213.402 72.375 206.704C79.0104 199.996 82.3333 190.642 82.3333 178.642V10.329H142.646V182.287C142.646 196.579 140.219 209.22 135.375 220.204C130.526 231.178 123.693 240.433 114.875 247.975C106.068 255.506 95.7604 261.183 83.9583 265.017C72.151 268.839 59.3542 270.746 45.5625 270.746Z" fill="black"/>
<path d="M316.702 276.683C301.004 276.683 286.066 274.381 271.889 269.787C257.722 265.194 244.733 258.746 232.931 250.454C221.123 242.152 210.91 232.287 202.285 220.871C193.67 209.444 186.972 196.902 182.181 183.246C177.4 169.579 175.014 155.22 175.014 140.162C175.014 124.97 177.4 110.548 182.181 96.8916C186.972 83.2249 193.67 70.7457 202.285 59.454C210.91 48.152 221.123 38.3186 232.931 29.954C244.733 21.5947 257.722 15.152 271.889 10.6207C286.066 6.09467 301.004 3.82904 316.702 3.82904C332.269 3.82904 347.108 6.09467 361.222 10.6207C375.332 15.152 388.29 21.5947 400.097 29.954C411.9 38.3186 422.144 48.152 430.827 59.454C439.504 70.7457 446.233 83.2249 451.014 96.8916C455.806 110.548 458.202 124.97 458.202 140.162C458.202 155.22 455.806 169.579 451.014 183.246C446.233 196.902 439.504 209.444 430.827 220.871C422.144 232.287 411.9 242.152 400.097 250.454C388.29 258.746 375.332 265.194 361.222 269.787C347.108 274.381 332.269 276.683 316.702 276.683ZM316.702 221.162C327.936 221.162 338.462 219.183 348.285 215.225C358.118 211.267 366.733 205.652 374.139 198.371C381.556 191.095 387.332 182.548 391.472 172.725C395.623 162.892 397.702 152.1 397.702 140.35C397.702 128.6 395.623 117.782 391.472 107.892C387.332 98.0061 381.556 89.4228 374.139 82.1415C366.733 74.8655 358.118 69.2457 348.285 65.2874C338.462 61.329 327.936 59.3499 316.702 59.3499C305.462 59.3499 294.931 61.329 285.097 65.2874C275.275 69.2457 266.665 74.8655 259.264 82.1415C251.858 89.4228 246.082 98.0061 241.931 107.892C237.775 117.782 235.702 128.6 235.702 140.35C235.702 152.1 237.806 162.892 242.014 172.725C246.233 182.548 252.045 191.095 259.452 198.371C266.853 205.652 275.436 211.267 285.202 215.225C294.962 219.183 305.462 221.162 316.702 221.162Z" fill="black"/>
<path d="M621.922 270.746H494.984V10.329H611.005C628.114 10.329 642.953 13.1728 655.526 18.8499C668.094 24.5322 677.823 32.7665 684.713 43.5582C691.614 54.3499 695.068 67.4072 695.068 82.7249C695.068 89.9905 693.594 97.0113 690.651 103.787C687.719 110.553 683.859 116.491 679.068 121.6C674.286 126.699 669.094 130.392 663.484 132.683C671.776 135.631 679.427 140.037 686.443 145.912C693.469 151.777 699.088 158.761 703.297 166.871C707.516 174.985 709.63 183.761 709.63 193.204C709.63 207.11 707.099 218.975 702.047 228.808C697.005 238.642 690.266 246.657 681.838 252.85C673.422 259.032 664.01 263.558 653.609 266.433C643.203 269.308 632.641 270.746 621.922 270.746ZM556.443 62.2249V115.079H607.943C615.469 115.079 621.693 112.558 626.609 107.517C631.526 102.475 633.984 96.0582 633.984 88.2665C633.984 80.7405 631.557 74.5165 626.713 69.5999C621.864 64.6832 615.672 62.2249 608.13 62.2249H556.443ZM556.443 159.871V218.85H616.38C625.432 218.85 632.901 216.11 638.776 210.621C644.651 205.136 647.588 197.735 647.588 188.412C647.588 183.178 646.245 178.392 643.568 174.058C640.885 169.714 637.213 166.261 632.547 163.704C627.891 161.152 622.505 159.871 616.38 159.871H556.443Z" fill="black"/>
<path d="M806.127 270.746H745.439V10.329H858.21C871.861 10.329 884.403 12.5686 895.835 17.0374C907.262 21.5113 917.189 27.7665 925.606 35.8082C934.033 43.8499 940.549 53.3915 945.148 64.4332C949.741 75.4749 952.044 87.5061 952.044 100.517C952.044 114.558 949.741 127.261 945.148 138.621C940.549 149.985 934.096 159.756 925.794 167.933C917.502 176.1 907.674 182.386 896.314 186.787C884.95 191.194 872.507 193.392 858.981 193.392H806.127V270.746ZM806.127 64.329V139.579H855.731C862.356 139.579 868.346 137.86 873.71 134.412C879.07 130.97 883.346 126.282 886.544 120.35C889.736 114.407 891.335 107.798 891.335 100.517C891.335 94.3916 889.736 88.5895 886.544 83.0999C883.346 77.6155 879.07 73.1155 873.71 69.5999C868.346 66.0895 862.356 64.329 855.731 64.329H806.127Z" fill="black"/>
<path d="M1043.75 270.746H983.066V10.329H1043.75V270.746Z" fill="black"/>
<path d="M1267.21 270.746H1097.19V10.329H1157.87V216.746H1267.21V270.746Z" fill="black"/>
<path d="M1718.31 270.746H1657.99V64.329H1585.04V10.329H1791.06V64.329H1718.31V270.746Z" fill="black"/>
</svg>
