<svg width="1790" height="280" viewBox="0 0 1790 280" fill="none" xmlns="http://www.w3.org/2000/svg">
<path d="M1440.5 154.964C1448.86 146.599 1448.86 132.984 1440.5 124.62C1432.13 116.255 1418.52 116.255 1410.15 124.62C1401.79 132.984 1401.79 146.599 1410.15 154.964C1418.52 163.328 1432.13 163.328 1440.5 154.964Z" fill="white"/>
<mask id="mask0_1_35" style="mask-type:luminance" maskUnits="userSpaceOnUse" x="1285" y="0" width="281" height="280">
<path d="M1285.5 0H1565.19V279.693H1285.5V0Z" fill="white"/>
</mask>
<g mask="url(#mask0_1_35)">
<path d="M1425.32 -0.00521851C1348.49 -0.00521851 1285.7 62.6354 1285.53 139.464C1285.5 152.526 1287.26 165.167 1290.58 177.161C1297.5 202.141 1328.7 210.464 1347.03 192.141C1344.35 192.266 1341.7 192.823 1339.19 193.797C1338.38 194.12 1337.46 194.167 1336.66 193.823C1335.41 193.286 1334.65 192.078 1334.68 190.776C1334.91 180.771 1338.94 171.365 1346.01 164.292C1353.23 157.068 1362.84 153.042 1373.06 152.948C1374.67 152.932 1376.28 153.026 1377.86 153.208C1379.94 148.245 1382.2 143.38 1384.62 138.698C1378.06 138.057 1371.42 138.802 1365.19 140.896C1364.15 141.245 1363 141.24 1362 140.766C1360.31 139.964 1359.44 138.115 1359.77 136.354C1361.72 126.12 1366.65 116.802 1374.04 109.411C1379.94 103.521 1386.92 99.2448 1394.81 96.7135C1401.91 94.4323 1409.54 93.7135 1416.96 94.6042C1453.92 59.2864 1503.47 49.1406 1513.1 47.4583C1514.4 47.2292 1515.73 47.651 1516.66 48.5781C1517.58 49.5104 1518.01 50.8385 1517.78 52.1354C1516.1 61.7448 1505.98 111.203 1470.76 148.151C1471.61 155.536 1470.87 163.13 1468.58 170.182C1466.04 178.021 1461.78 184.969 1455.92 190.833C1448.57 198.182 1439.32 203.099 1429.16 205.068C1427.81 205.328 1425.93 204.74 1425.07 203.672C1424.19 202.589 1423.93 201.172 1424.39 199.844C1426.48 193.667 1427.26 187.068 1426.67 180.557C1421.91 183.01 1416.96 185.307 1411.92 187.417C1412.08 188.948 1412.17 190.49 1412.16 192.052C1412.07 202.266 1408.04 211.865 1400.81 219.094C1393.76 226.146 1384.38 230.172 1374.4 230.422C1373.54 230.448 1372.67 230.151 1372.05 229.552C1371.07 228.62 1370.78 227.229 1371.26 226.026C1372.26 223.49 1372.83 220.797 1372.97 218.078L1372.96 218.083C1354.64 236.411 1362.96 267.604 1387.93 274.526C1399.93 277.849 1412.57 279.615 1425.64 279.589C1502.47 279.417 1565.12 216.63 1565.12 139.792C1565.12 62.5885 1502.53 -0.00521851 1425.32 -0.00521851Z" fill="white"/>
</g>
<path d="M45.5208 270.451H0V216.514H45.8958C56.8646 216.514 65.6667 213.17 72.2917 206.472C78.9271 199.779 82.25 190.441 82.25 178.451V10.3263H142.5V182.076C142.5 196.368 140.073 209.003 135.229 219.972C130.38 230.93 123.552 240.175 114.75 247.701C105.958 255.217 95.6563 260.889 83.8542 264.722C72.0625 268.545 59.2813 270.451 45.5208 270.451Z" fill="white"/>
<path d="M316.346 276.389C300.664 276.389 285.747 274.097 271.596 269.514C257.44 264.92 244.461 258.472 232.658 250.18C220.867 241.889 210.664 232.045 202.054 220.639C193.455 209.222 186.763 196.696 181.971 183.055C177.19 169.404 174.804 155.05 174.804 139.993C174.804 124.826 177.19 110.425 181.971 96.7846C186.763 83.1336 193.455 70.67 202.054 59.3888C210.664 48.0971 220.867 38.2794 232.658 29.9305C244.461 21.5711 257.44 15.1284 271.596 10.5971C285.747 6.07108 300.664 3.80545 316.346 3.80545C331.914 3.80545 346.742 6.07108 360.825 10.5971C374.919 15.1284 387.867 21.5711 399.658 29.9305C411.45 38.2794 421.679 48.0971 430.346 59.3888C439.023 70.67 445.752 83.1336 450.533 96.7846C455.31 110.425 457.7 124.826 457.7 139.993C457.7 155.05 455.31 169.404 450.533 183.055C445.752 196.696 439.023 209.222 430.346 220.639C421.679 232.045 411.45 241.889 399.658 250.18C387.867 258.472 374.919 264.92 360.825 269.514C346.742 274.097 331.914 276.389 316.346 276.389ZM316.346 220.91C327.565 220.91 338.086 218.941 347.908 214.993C357.726 211.035 366.33 205.425 373.721 198.16C381.122 190.884 386.893 182.337 391.033 172.514C395.185 162.696 397.263 151.925 397.263 140.201C397.263 128.467 395.185 117.66 391.033 107.785C386.893 97.8992 381.122 89.3211 373.721 82.0555C366.33 74.7794 357.726 69.17 347.908 65.2221C338.086 61.2638 327.565 59.2846 316.346 59.2846C305.138 59.2846 294.622 61.2638 284.804 65.2221C274.981 69.17 266.372 74.7794 258.971 82.0555C251.58 89.3211 245.81 97.8992 241.658 107.785C237.518 117.66 235.45 128.467 235.45 140.201C235.45 151.925 237.554 162.696 241.763 172.514C245.971 182.337 251.768 190.884 259.158 198.16C266.56 205.425 275.138 211.035 284.888 214.993C294.648 218.941 305.138 220.91 316.346 220.91Z" fill="white"/>
<path d="M621.235 270.451H494.423V10.3263H610.339C627.423 10.3263 642.24 13.17 654.798 18.8471C667.365 24.5138 677.089 32.7378 683.964 43.5138C690.85 54.2794 694.298 67.3159 694.298 82.618C694.298 89.8836 692.829 96.8992 689.902 103.66C686.969 110.425 683.115 116.358 678.339 121.451C673.558 126.55 668.365 130.243 662.756 132.535C671.032 135.483 678.678 139.884 685.693 145.743C692.704 151.608 698.318 158.587 702.527 166.68C706.735 174.779 708.839 183.55 708.839 192.993C708.839 206.884 706.318 218.738 701.277 228.555C696.246 238.378 689.527 246.384 681.11 252.576C672.693 258.759 663.287 263.285 652.902 266.16C642.511 269.024 631.954 270.451 621.235 270.451ZM555.818 62.1596V114.951H607.277C614.803 114.951 621.016 112.43 625.923 107.389C630.839 102.347 633.298 95.9409 633.298 88.1596C633.298 80.6492 630.87 74.4409 626.027 69.5346C621.178 64.618 614.99 62.1596 607.464 62.1596H555.818ZM555.818 159.701V218.618H615.693C624.745 218.618 632.204 215.878 638.068 210.389C643.943 204.904 646.881 197.509 646.881 188.201C646.881 182.983 645.537 178.201 642.86 173.868C640.178 169.524 636.511 166.076 631.86 163.535C627.204 160.983 621.818 159.701 615.693 159.701H555.818Z" fill="white"/>
<path d="M805.25 270.451H744.604V10.3263H857.271C870.906 10.3263 883.438 12.5555 894.854 17.0138C906.271 21.4721 916.188 27.7221 924.604 35.7638C933.021 43.795 939.521 53.3211 944.104 64.3471C948.698 75.3784 951 87.3992 951 100.41C951 114.441 948.698 127.128 944.104 138.472C939.521 149.821 933.083 159.576 924.792 167.743C916.5 175.899 906.677 182.175 895.333 186.576C883.985 190.983 871.552 193.18 858.042 193.18H805.25V270.451ZM805.25 64.2638V139.43H854.792C861.417 139.43 867.401 137.712 872.75 134.264C878.11 130.821 882.38 126.134 885.563 120.201C888.755 114.274 890.354 107.675 890.354 100.41C890.354 94.2846 888.755 88.4878 885.563 83.0138C882.38 77.5294 878.11 73.0346 872.75 69.5346C867.401 66.0242 861.417 64.2638 854.792 64.2638H805.25Z" fill="white"/>
<path d="M1042.62 270.451H981.971V10.3263H1042.62V270.451Z" fill="white"/>
<path d="M1265.82 270.451H1095.97V10.3263H1156.61V216.514H1265.82V270.451Z" fill="white"/>
<path d="M1716.43 270.451H1656.18V64.2638H1583.3V10.3263H1789.12V64.2638H1716.43V270.451Z" fill="white"/>
</svg>
